<?xml version="1.0" encoding="iso-8859-1"?>
<!-- Generator: Adobe Illustrator 19.0.0, SVG Export Plug-In . SVG Version: 6.00 Build 0)  -->
<svg xmlns="http://www.w3.org/2000/svg" xmlns:xlink="http://www.w3.org/1999/xlink" version="1.1" id="Layer_1" x="0px" y="0px" viewBox="0 0 512 512" style="enable-background:new 0 0 512 512;" xml:space="preserve" width="512px" height="512px">
<g>
	<g>
		<g>
			<path d="M256,0C114.618,0,0,114.618,0,256s114.618,256,256,256s256-114.618,256-256S397.382,0,256,0z M256,469.333     c-117.818,0-213.333-95.515-213.333-213.333S138.182,42.667,256,42.667S469.333,138.182,469.333,256S373.818,469.333,256,469.333     z" fill="#ea1e63"/>
			<path d="M255.996,256.006c-60.999,0-117.879,41.261-139.932,99.062c-4.2,11.008,1.319,23.337,12.327,27.537     s23.337-1.319,27.537-12.327c15.887-41.64,57.194-71.605,100.068-71.605c42.858,0,84.166,29.95,100.072,71.573     c4.206,11.006,16.537,16.518,27.543,12.313s16.518-16.537,12.313-27.543C373.846,297.243,316.971,256.006,255.996,256.006z" fill="#ea1e63"/>
			<path d="M176.915,207.085c8.331,8.331,21.839,8.331,30.17,0s8.331-21.839,0-30.17l-42.667-42.667     c-8.331-8.331-21.839-8.331-30.17,0s-8.331,21.839,0,30.17L176.915,207.085z" fill="#ea1e63"/>
			<path d="M335.085,207.085l42.667-42.667c8.331-8.331,8.331-21.839,0-30.17c-8.331-8.331-21.839-8.331-30.17,0l-42.667,42.667     c-8.331,8.331-8.331,21.839,0,30.17S326.754,215.416,335.085,207.085z" fill="#ea1e63"/>
		</g>
	</g>
</g>
<g>
</g>
<g>
</g>
<g>
</g>
<g>
</g>
<g>
</g>
<g>
</g>
<g>
</g>
<g>
</g>
<g>
</g>
<g>
</g>
<g>
</g>
<g>
</g>
<g>
</g>
<g>
</g>
<g>
</g>
</svg>
